<svg width="290" height="298" xmlns="http://www.w3.org/2000/svg" version="1.1">
 <g id="Layer_1">
  <title>Layer 1</title>
  <path id="svg_2" fill="rgb(11.376953%,43.530273%,71.289063%)" fill-rule="nonzero" d="m288.83203,148.66016c0,82.10547 -64.64843,148.64453 -144.41406,148.64453c-79.76172,0 -144.41797,-66.53906 -144.41797,-148.64453c0,-82.10157 64.65625,-148.66016 144.41797,-148.66016c79.76563,0 144.41406,66.55859 144.41406,148.66016"/>
  <path id="svg_3" fill="rgb(100%,100%,100%)" fill-rule="nonzero" d="m144.81641,129.65625c26.35547,-0.54687 47.125,22.67969 47.63672,49c0.51171,27.13281 -22.0625,48.51172 -47.63672,49.01953c-26.36328,0.53516 -47.125,-22.69922 -47.63672,-49.01953c0.53125,-27.10937 21.27344,-48.48437 47.63672,-49m92.52343,-73.58203c-48.70703,-52.64453 -131.71875,-52.41797 -182.20703,-2.91797c-24.59765,24.10547 -38.26953,58.20313 -39.14453,92.97656c-0.32031,13.09766 0.92578,29.05078 6.59375,41.00391c7.15235,15.08203 24.76172,23.63672 40.60547,21.16406c10.42969,-1.61328 19.14844,-7.13672 25.18359,-14.96875c6.63282,25.94922 29.09375,44.89844 56.44532,45.46094c32.28125,0.66016 57.78906,-27.90625 58.42187,-60.13672c0.63281,-33.21875 -27.10937,-59.47656 -58.42187,-60.11719c-19.83203,-0.40625 -37.09766,10.23438 -47.63672,25.94922l0,-26.43359c0.53125,-27.10547 21.27344,-48.45703 47.63672,-49.00391c26.35547,-0.54297 47.125,22.70313 47.63672,49.00391c0.125,7.17187 10.90625,7.17969 10.78515,0c-0.66015,-33.20703 -26.14062,-59.44922 -58.42187,-60.10547c-32.28125,-0.66016 -57.80078,27.89062 -58.41407,60.10547l0,51.8789c-1.71484,19.28907 -19.53906,31.65625 -37.85937,26.23829c-17.28125,-5.09766 -19.60547,-22.71094 -21.21484,-38.20313c-3.73047,-35.90234 10.72656,-71.95703 35.4414,-96.96875c25.55078,-25.89453 61.71485,-37.30078 97.03516,-33.23437c34.96484,4.0664 66.54297,26.01171 85.19922,56.29296c32.19531,52.22657 18.79297,121.60938 -27.2461,159.91016c-23.16015,19.27734 -53.33593,27.60547 -82.78125,25.53516c-33.20312,-2.375 -63.57031,-20.69141 -83.98047,-47.30078c-4.30859,-5.59375 -11.89453,2.32812 -7.62109,7.875c24.07422,31.36328 60.19922,49.71093 98.96484,50.8789c34.17188,1.04688 67.55469,-13.22656 92.13672,-37.36328c51.14844,-50.14453 50.92578,-135.58594 2.86328,-187.51953"/>
 </g>
</svg>